PathFileType  4	(X/Y/Z) C:\Users\hpl\Documents\MyRepositories\mocap-processing\Data\treadmill\Subject1\Edited\
DataRate	CameraRate	NumFrames	NumMarkers	Units	OrigDataRate	OrigDataStartFrame	OrigNumFrames
   50.0		   50.0		   11		     34		 mm	   50.0	      1575	   3148
Frame#	Time	r_knee			r_shank(antsup)			r_ankle			r_calc			r_5meta			r_toe			L_knee			L_shank(ant_sup)			L_ankle			L_calc			L_5meta			L_toe			r_sh2			r_sh3			r_sh4			L_sh2			L_sh3			r_thigh1			r_thigh2			r_thigh3			r_thigh4			r_thigh5			L_thigh1			L_thigh2			L_thigh3			L_thigh4			r.ASIS			r.PSIS			L.ASIS			L.PSIS			C7			R_Shoulder			L_Shoulder			Sternum			
		X1	Y1	Z1	X2	Y2	Z2	X3	Y3	Z3	X4	Y4	Z4	X5	Y5	Z5	X6	Y6	Z6	X7	Y7	Z7	X8	Y8	Z8	X9	Y9	Z9	X10	Y10	Z10	X11	Y11	Z11	X12	Y12	Z12	X13	Y13	Z13	X14	Y14	Z14	X15	Y15	Z15	X16	Y16	Z16	X17	Y17	Z17	X18	Y18	Z18	X19	Y19	Z19	X20	Y20	Z20	X21	Y21	Z21	X22	Y22	Z22	X23	Y23	Z23	X24	Y24	Z24	X25	Y25	Z25	X26	Y26	Z26	X27	Y27	Z27	X28	Y28	Z28	X29	Y29	Z29	X30	Y30	Z30	X31	Y31	Z31	X32	Y32	Z32	X33	Y33	Z33	X34	Y34	Z34	

1575	31.48000	1066.992	617.212	-408.668	1081.275	527.592	-405.258	990.737	154.130	-441.769	900.682	129.543	-495.139	1086.742	57.194	-425.335	1133.074	93.110	-481.813	813.036	569.856	-703.145	828.208	447.513	-696.568	719.915	113.729	-659.449	639.456	78.225	-609.274	878.519	71.630	-634.216	834.571	41.769	-692.756	1064.742	408.581	-411.345	1006.242	535.314	-407.769	982.028	421.928	-412.201	740.802	472.983	-708.988	720.342	351.660	-698.912	980.074	935.909	-401.507	1038.574	837.597	-396.700	1017.395	787.204	-379.168	888.402	874.517	-381.304	952.881	777.273	-387.875	918.945	833.512	-743.269	915.037	695.864	-726.642	800.376	837.179	-755.635	802.290	702.082	-728.799	945.794	1098.290	-454.449	755.974	1117.707	-535.653	946.392	1097.150	-707.555	759.442	1121.575	-618.318	855.495	1609.446	-588.610	907.623	1576.688	-420.575	921.153	1563.824	-765.946	993.171	1525.839	-580.891
1576	31.50000	1063.368	612.478	-409.435	1085.189	523.696	-405.107	1040.974	141.470	-440.368	955.330	106.512	-495.138	1147.866	57.098	-422.541	1190.125	98.292	-478.469	795.739	569.877	-702.365	808.103	447.636	-696.214	695.460	115.041	-658.521	615.126	79.320	-608.423	854.025	71.285	-635.266	809.348	41.689	-692.643	1082.590	403.417	-411.336	1009.586	522.828	-407.366	998.842	407.250	-411.398	721.226	474.513	-707.172	698.245	353.910	-697.137	978.233	932.123	-400.923	1036.094	833.295	-397.032	1014.849	782.816	-379.695	885.770	870.779	-381.144	950.507	773.761	-389.110	909.708	830.710	-743.081	901.986	692.991	-726.781	790.908	837.624	-754.383	789.343	702.409	-727.623	945.069	1095.093	-454.151	754.760	1114.936	-534.081	944.529	1094.233	-707.528	757.857	1119.026	-616.433	856.128	1606.839	-589.634	906.881	1573.979	-421.041	922.729	1560.662	-766.377	993.544	1522.679	-580.990
1577	31.52000	1056.662	605.108	-411.071	1087.069	519.063	-405.961	1090.826	133.276	-438.164	1009.934	87.957	-492.842	1207.708	62.941	-420.848	1244.005	108.928	-476.290	779.747	569.651	-701.522	789.786	447.400	-695.544	671.273	116.374	-657.650	590.906	80.899	-607.361	829.697	70.809	-635.291	783.918	41.529	-692.286	1098.995	399.451	-410.221	1012.149	509.115	-407.542	1015.090	393.090	-410.240	703.194	476.038	-705.495	678.346	355.878	-695.881	974.769	925.184	-399.589	1030.806	825.317	-396.535	1008.522	775.209	-381.533	880.928	864.975	-382.589	944.210	767.641	-392.873	901.747	827.391	-743.010	889.646	689.700	-727.000	782.515	837.679	-753.013	777.791	702.355	-726.181	944.876	1091.064	-453.300	754.392	1111.376	-532.442	943.241	1090.333	-706.934	757.137	1115.561	-614.799	856.660	1603.280	-590.128	906.742	1570.605	-421.308	924.227	1556.654	-766.363	994.043	1518.853	-580.926
1578	31.54000	1048.554	595.878	-413.484	1088.041	514.735	-407.700	1136.155	130.207	-434.971	1060.371	74.733	-487.743	1259.773	73.638	-419.196	1290.073	125.688	-474.710	765.830	569.515	-700.639	773.025	446.743	-694.831	647.537	117.973	-656.964	566.981	83.231	-606.742	805.418	70.221	-635.381	759.552	41.495	-692.435	1112.074	396.714	-410.584	1014.371	497.103	-407.924	1029.192	382.062	-409.188	687.216	477.486	-704.150	659.946	357.676	-694.717	969.815	915.346	-397.317	1022.626	814.072	-395.627	998.206	763.862	-380.931	874.005	858.697	-385.537	933.367	758.996	-400.455	893.999	824.429	-742.570	878.603	687.809	-728.020	775.858	837.769	-751.822	767.429	702.764	-724.959	945.707	1086.547	-452.051	754.771	1107.172	-530.896	942.906	1085.982	-705.886	757.205	1111.392	-613.471	856.859	1599.146	-590.637	907.069	1566.628	-421.167	925.603	1551.777	-765.899	994.720	1514.312	-580.534
1579	31.56000	1040.480	587.563	-415.400	1087.903	512.145	-410.394	1173.211	132.172	-431.894	1103.370	66.609	-481.679	1303.610	92.308	-417.593	1325.766	145.510	-475.364	754.859	569.281	-699.832	758.834	446.219	-694.337	624.179	120.039	-656.697	543.338	86.541	-606.518	781.249	69.458	-635.742	734.417	41.184	-692.465	1122.069	396.509	-410.831	1015.843	488.265	-409.819	1040.961	374.636	-408.735	673.586	479.074	-703.165	643.116	360.172	-694.243	966.062	905.208	-394.379	1013.413	801.274	-394.302	986.114	751.750	-382.880	866.617	852.371	-388.336	921.968	749.854	-399.983	889.279	821.313	-742.003	870.089	685.085	-726.970	771.006	837.714	-750.297	759.528	702.758	-723.099	947.609	1081.696	-450.671	756.096	1102.454	-529.151	943.382	1081.472	-704.589	758.378	1106.352	-611.422	857.328	1594.529	-590.279	907.866	1562.238	-420.545	926.776	1546.545	-765.043	995.518	1509.470	-579.854
1580	31.58000	1032.774	580.783	-415.744	1084.995	508.904	-412.242	1199.060	135.849	-431.498	1134.934	62.583	-478.094	1332.469	109.629	-416.619	1348.993	162.657	-477.210	746.821	568.614	-699.385	746.605	444.945	-694.181	601.539	122.786	-657.210	519.936	90.967	-607.111	757.426	68.556	-636.385	709.683	40.921	-692.628	1128.369	396.869	-411.562	1015.257	479.730	-411.827	1048.930	368.824	-408.590	663.037	480.605	-702.956	628.355	362.518	-694.341	963.087	894.876	-390.917	1006.402	789.789	-392.036	976.762	740.705	-381.846	861.502	846.202	-389.352	912.930	741.682	-401.619	886.333	817.521	-741.376	864.504	681.952	-725.942	768.979	836.530	-748.913	754.368	702.006	-721.723	949.760	1076.304	-449.006	757.721	1097.513	-526.694	944.837	1077.148	-703.221	760.371	1101.511	-608.844	858.029	1589.932	-589.141	908.787	1557.781	-419.344	927.599	1541.250	-763.982	996.364	1504.833	-578.683
1581	31.60000	1028.539	574.761	-413.986	1082.227	504.208	-410.606	1209.526	135.321	-435.895	1151.073	58.221	-485.206	1344.119	117.363	-418.890	1358.275	171.682	-478.121	741.020	567.404	-699.550	736.956	443.318	-694.332	579.607	126.341	-658.263	497.176	96.824	-608.131	733.789	67.085	-635.985	685.037	40.611	-692.794	1129.567	393.753	-411.582	1013.636	472.577	-410.991	1051.610	362.419	-409.824	654.584	481.786	-703.524	615.815	365.473	-695.339	963.897	887.578	-387.257	1005.506	780.228	-389.394	973.627	733.130	-380.079	861.291	841.472	-388.705	910.251	735.704	-401.329	885.845	813.955	-740.524	861.851	678.730	-725.109	768.731	835.305	-747.849	751.923	700.442	-721.328	951.776	1071.151	-447.090	759.769	1092.937	-523.460	946.024	1072.926	-702.173	761.962	1097.364	-606.129	858.817	1585.765	-587.815	909.679	1553.569	-417.798	928.424	1536.610	-762.550	997.440	1500.706	-577.159
1582	31.62000	1031.475	571.684	-414.355	1081.856	498.069	-409.596	1205.251	126.572	-439.786	1148.192	53.847	-495.377	1339.659	107.332	-421.791	1353.591	168.144	-475.092	739.017	565.744	-699.650	730.381	441.327	-694.577	558.551	131.068	-660.481	475.319	104.420	-610.586	710.700	65.532	-636.843	660.733	40.353	-693.336	1127.342	386.967	-411.885	1012.901	467.812	-412.790	1049.010	356.857	-413.548	649.540	483.118	-704.898	606.114	368.584	-696.957	967.234	885.804	-383.690	1009.369	778.632	-385.981	977.818	731.626	-377.329	865.058	839.001	-385.658	915.286	734.047	-399.166	887.264	810.622	-739.208	861.710	675.670	-724.642	770.708	833.206	-747.388	752.059	698.691	-721.397	954.191	1067.312	-444.747	761.918	1088.842	-520.518	949.391	1069.325	-700.177	764.885	1093.225	-603.234	859.930	1582.081	-585.977	910.492	1550.000	-415.847	929.312	1532.844	-760.734	998.929	1497.423	-575.110
1583	31.64000	1037.366	569.932	-414.958	1082.386	492.509	-410.376	1189.553	119.677	-442.715	1128.466	54.381	-497.460	1322.630	93.318	-425.699	1341.051	151.701	-480.116	740.089	563.783	-699.971	726.697	439.083	-695.122	538.849	137.263	-663.442	454.372	114.619	-613.247	687.281	62.809	-638.514	636.542	40.145	-694.056	1122.891	379.413	-413.667	1012.352	465.511	-415.852	1042.874	353.156	-417.391	647.789	484.497	-706.388	599.180	372.315	-699.060	971.844	886.857	-381.103	1016.466	780.724	-384.114	986.646	733.147	-374.381	871.039	837.466	-381.723	924.049	733.905	-395.820	890.887	807.892	-737.235	864.621	672.430	-722.347	774.485	830.996	-746.710	754.630	696.450	-721.493	957.487	1065.707	-441.507	765.281	1085.360	-518.120	953.766	1065.997	-697.160	768.767	1089.552	-600.660	861.293	1579.049	-583.836	911.472	1547.084	-413.665	930.657	1530.046	-758.665	1000.371	1494.948	-572.749
1584	31.66000	1040.533	567.436	-414.341	1083.356	488.009	-411.163	1175.002	113.803	-445.609	1109.137	56.035	-498.945	1305.662	80.008	-430.201	1326.802	137.281	-485.536	746.115	561.304	-700.340	726.594	436.775	-695.945	521.513	145.537	-666.333	436.126	128.230	-615.746	664.997	60.101	-639.405	612.886	40.316	-694.590	1117.792	373.005	-416.072	1011.911	464.407	-416.042	1037.053	350.967	-418.669	650.701	486.361	-708.428	595.726	376.937	-701.087	977.466	887.356	-378.223	1023.969	782.074	-382.955	994.787	733.750	-374.490	877.514	836.189	-378.335	931.890	733.563	-394.136	896.721	805.986	-734.792	870.780	670.615	-720.810	780.134	828.892	-745.210	760.770	694.041	-720.625	961.746	1065.406	-438.183	769.649	1083.183	-516.307	960.056	1063.817	-693.285	773.210	1086.732	-598.783	862.719	1576.939	-581.200	912.506	1544.978	-411.021	932.259	1528.037	-756.104	1002.415	1493.360	-570.076
1585	31.68000	1039.289	565.787	-413.113	1083.772	486.581	-411.183	1164.247	111.765	-447.038	1091.737	59.982	-500.019	1289.352	68.182	-433.683	1315.882	122.495	-489.047	755.934	558.481	-701.596	730.921	434.382	-697.552	508.021	156.344	-669.085	422.352	146.355	-617.851	643.899	57.458	-640.020	589.394	41.102	-694.803	1117.407	371.321	-417.162	1012.058	463.257	-413.296	1036.225	349.844	-416.769	658.485	488.556	-709.802	596.500	382.625	-702.076	982.888	886.532	-375.289	1028.928	782.122	-380.297	997.269	732.455	-376.386	881.602	836.851	-376.837	934.053	733.408	-394.290	905.147	805.199	-732.176	881.238	669.488	-719.146	788.145	826.214	-742.928	770.928	691.172	-719.340	966.141	1065.821	-435.209	773.981	1082.703	-514.174	965.576	1063.010	-689.628	777.884	1085.360	-596.978	864.583	1576.422	-578.243	913.808	1544.073	-408.013	934.456	1527.306	-753.424	1004.925	1493.538	-567.197
